<?xml version="1.0" encoding="utf-8"?>
<!-- Generator: Adobe Illustrator 24.0.0, SVG Export Plug-In . SVG Version: 6.00 Build 0)  -->
<svg version="1.1" id="Layer_1" xmlns="http://www.w3.org/2000/svg" xmlns:xlink="http://www.w3.org/1999/xlink" x="0px" y="0px"
	 viewBox="0 0 792 612" style="enable-background:new 0 0 792 612;" xml:space="preserve">
<style type="text/css">
	.st0{fill:none;stroke:#000000;stroke-width:8.716;stroke-miterlimit:10;}
	.st1{fill:#D4CEC3;stroke:#9A7E5E;stroke-width:9.4379;stroke-miterlimit:10;}
	.st2{fill:#FFF200;stroke:#D4CEC3;stroke-width:6.2522;stroke-miterlimit:10;}
</style>
<path class="st0" d="M225.8,358.8c0.8,0.1,1.1,0.1,1.4,0.1c21.2,0,42.3,0,63.5,0.1c1.5,0,2.1-0.7,2.6-1.9c1.3-3.3,2.7-6.6,3.9-10
	c5.6-15.3,11.5-30.4,16.4-45.9c5.9-18.5,10.9-37.4,16.2-56.1c1.4-5,4.9-7.8,9.5-7.8s8,2.8,9.3,7.7c0.9,3.4,1.6,6.8,2.6,10.1
	c6,19.9,11.7,39.9,18.2,59.6c4.6,14,10.3,27.7,15.4,41.6c0.8,2,1.7,2.7,3.9,2.7c20.7-0.1,41.3-0.1,62-0.1c0.5,0,1.1-0.1,1.9-0.3
	C404,305,366.8,244.5,339.4,177.3C312.1,244.6,274.8,305.1,225.8,358.8z"/>
<path class="st1" d="M225.8,358.8c49-53.7,86.3-114.2,113.6-181.5C366.8,244.5,404,305,452.9,358.7c-0.8,0.1-1.4,0.3-1.9,0.3
	c-20.7,0-41.3,0-62,0.1c-2.2,0-3.2-0.7-3.9-2.7c-5.1-13.9-10.8-27.5-15.4-41.6c-6.5-19.7-12.2-39.7-18.2-59.6
	c-1-3.3-1.7-6.7-2.6-10.1c-1.3-4.8-4.8-7.6-9.3-7.7c-4.7,0-8.1,2.8-9.5,7.8c-5.4,18.7-10.3,37.6-16.2,56.1
	c-4.9,15.5-10.9,30.6-16.4,45.9c-1.2,3.4-2.7,6.6-3.9,10c-0.5,1.3-1.1,1.9-2.6,1.9c-21.2-0.1-42.3,0-63.5-0.1
	C226.9,358.9,226.6,358.9,225.8,358.8z"/>
<path class="st2" d="M261.9,174.7c-0.4-4.8,0.8-9.4,3.2-13.3c-10.3,0.9-18.4,9.5-18.4,20.1c0,11.1,9,20.1,20.1,20.1
	c6.1,0,11.5-2.7,15.2-6.9C271.5,193.8,262.8,185.5,261.9,174.7z"/>
</svg>
