<?xml version="1.0" encoding="utf-8"?>
<!-- Generator: Adobe Illustrator 24.0.0, SVG Export Plug-In . SVG Version: 6.00 Build 0)  -->
<svg version="1.1" id="Layer_1" xmlns="http://www.w3.org/2000/svg" xmlns:xlink="http://www.w3.org/1999/xlink" x="0px" y="0px"
	 viewBox="0 0 792 612" style="enable-background:new 0 0 792 612;" xml:space="preserve">
<style type="text/css">
	.st0{fill:#FFF200;stroke:#D4CEC3;stroke-width:10.2848;stroke-miterlimit:10;}
	.st1{fill:none;stroke:#D4CEC3;stroke-width:10.2848;stroke-miterlimit:10;}
	.st2{fill:#FFF200;}
	.st3{fill:none;stroke:#D4CEC3;stroke-width:3.7693;stroke-miterlimit:10;}
	.st4{fill:none;stroke:#D4CEC3;stroke-width:2;stroke-miterlimit:10;}
	.st5{fill:#8B7B69;stroke:#D4CEC3;stroke-width:10.2848;stroke-miterlimit:10;}
</style>
<path class="st0" d="M257.6,426.9L257.6,426.9c-7.7,0-14.1-6.3-14.1-14.1l0,0c0-7.7,6.3-14.1,14.1-14.1l0,0
	c7.7,0,14.1,6.3,14.1,14.1l0,0C271.7,420.6,265.4,426.9,257.6,426.9z"/>
<path class="st1" d="M247.8,501.9C309.4,306,357.2,210.4,391.2,215.1c19.7,2.7,34.8,39.2,45.2,109.5"/>
<path class="st1" d="M425.3,499.7c5.1,0.9,10.6-50.1,8.4-58.5c-2.1-7.9-13.5,13.2-13,37.3C420.9,488.3,423,499.3,425.3,499.7z"/>
<path class="st1" d="M454.3,498.8c-5.1,0.9-10.6-50.1-8.4-58.5c2.1-7.9,13.5,13.2,13,37.3C458.7,487.4,456.6,498.4,454.3,498.8z"/>
<circle class="st2" cx="437.8" cy="333.8" r="12.5"/>
<path class="st3" d="M259.6,503.7h-24.3c-1,0-1.9-0.8-1.9-1.9l0,0c0-1,0.8-1.9,1.9-1.9h24.3c1,0,1.9,0.8,1.9,1.9l0,0
	C261.5,502.8,260.6,503.7,259.6,503.7z"/>
<path class="st4" d="M424.8,482.1L424.8,482.1c-0.2,0,0.5-5.2,1.5-11.7l0.4-2.6c1-6.5,2-11.7,2.1-11.6l0,0c0.2,0-0.5,5.2-1.5,11.7
	l-0.4,2.6C425.9,477,425,482.2,424.8,482.1z"/>
<path class="st4" d="M450.3,453.5L450.3,453.5c0.2,0,1.2,5.1,2.3,11.6l0.4,2.6c1.1,6.5,1.9,11.7,1.7,11.7l0,0
	c-0.2,0-1.2-5.1-2.3-11.6l-0.4-2.6C450.9,458.7,450.2,453.5,450.3,453.5z"/>
<path class="st5" d="M461.3,392.8c0,26.3-9.9,47.6-22.2,47.6c-12.3,0-22.2-21.3-22.2-47.6c0-26.3,9.9-47.6,22.2-47.6
	C451.3,345.2,461.3,366.5,461.3,392.8z"/>
<circle class="st2" cx="433" cy="363.4" r="2.8"/>
</svg>
