<?xml version="1.0" encoding="utf-8"?>
<!-- Generator: Adobe Illustrator 24.0.0, SVG Export Plug-In . SVG Version: 6.00 Build 0)  -->
<svg version="1.1" id="Layer_1" xmlns="http://www.w3.org/2000/svg" xmlns:xlink="http://www.w3.org/1999/xlink" x="0px" y="0px"
	 viewBox="0 0 792 612" style="enable-background:new 0 0 792 612;" xml:space="preserve">
<style type="text/css">
	.st0{fill:none;stroke:#D4CEC3;stroke-width:10.2848;stroke-miterlimit:10;}
	.st1{fill:none;stroke:#D4CEC3;stroke-width:8.1671;stroke-miterlimit:10;}
	.st2{fill:#D4CEC3;}
	.st3{fill:none;stroke:#D4CEC3;stroke-width:3.7693;stroke-miterlimit:10;}
</style>
<g>
	<path class="st0" d="M257.6,426.9L257.6,426.9c-7.7,0-14.1-6.3-14.1-14.1v0c0-7.7,6.3-14.1,14.1-14.1h0c7.7,0,14.1,6.3,14.1,14.1v0
		C271.7,420.6,265.4,426.9,257.6,426.9z"/>
	<g>
		<path class="st0" d="M247.8,501.9C309.4,306,357.2,210.4,391.2,215.1c19.7,2.7,34.8,39.2,45.2,109.5"/>
		<path class="st0" d="M461.3,392.8c0,26.3-9.9,47.6-22.2,47.6c-12.3,0-22.2-21.3-22.2-47.6c0-26.3,9.9-47.6,22.2-47.6
			C451.3,345.2,461.3,366.5,461.3,392.8z"/>
		<path class="st0" d="M425.3,499.7c5.1,0.9,10.6-50.1,8.4-58.5c-2.1-7.9-13.5,13.2-13,37.3C420.9,488.3,423,499.3,425.3,499.7z"/>
		<path class="st0" d="M454.3,498.8c-5.1,0.9-10.6-50.1-8.4-58.5c2.1-7.9,13.5,13.2,13,37.3C458.7,487.4,456.6,498.4,454.3,498.8z"
			/>
		<path class="st1" d="M433.4,367L433.4,367c-0.5,0-0.9-0.4-0.9-0.9v-0.2c0-0.5,0.4-0.9,0.9-0.9h0c0.5,0,0.9,0.4,0.9,0.9v0.2
			C434.3,366.6,433.9,367,433.4,367z"/>
		<circle class="st2" cx="437.8" cy="333.8" r="12.5"/>
	</g>
	<path class="st3" d="M259.6,503.7h-24.3c-1,0-1.9-0.8-1.9-1.9l0,0c0-1,0.8-1.9,1.9-1.9h24.3c1,0,1.9,0.8,1.9,1.9l0,0
		C261.5,502.8,260.6,503.7,259.6,503.7z"/>
</g>
</svg>
