<?xml version="1.0" encoding="utf-8"?>
<!-- Generator: Adobe Illustrator 24.0.0, SVG Export Plug-In . SVG Version: 6.00 Build 0)  -->
<svg version="1.1" id="Layer_1" xmlns="http://www.w3.org/2000/svg" xmlns:xlink="http://www.w3.org/1999/xlink" x="0px" y="0px"
	 viewBox="0 0 792 612" style="enable-background:new 0 0 792 612;" xml:space="preserve">
<style type="text/css">
	.st0{fill:none;stroke:#D4CEC3;stroke-width:10.9995;stroke-miterlimit:10;}
	.st1{fill:none;stroke:#D4CEC3;stroke-width:13.5564;stroke-miterlimit:10;}
</style>
<g>
	<circle class="st0" cx="381.4" cy="288.9" r="121.2"/>
	<ellipse class="st0" cx="381.2" cy="153.7" rx="3.2" ry="11.6"/>
	<ellipse class="st0" cx="513.6" cy="285" rx="11.6" ry="3.2"/>
	<ellipse class="st0" cx="245.4" cy="284.6" rx="11.6" ry="3.2"/>
	<ellipse class="st0" cx="382.5" cy="421.5" rx="3.2" ry="11.6"/>
	<g>
		<path class="st1" d="M370.6,301.9l14.4,10.6c1.9,1.4,1.7,4.3-0.4,5.5l-19.6,10.8l-17.8,9.8c-2.4,1.3-5.3-0.8-4.8-3.5l4.1-19.9
			l4.5-21.9c0.5-2.3,3.2-3.4,5.1-2L370.6,301.9z"/>
		<path class="st1" d="M392.4,281.1L378,270.4c-1.9-1.4-1.7-4.3,0.4-5.5l19.6-10.7l17.9-9.8c2.4-1.3,5.3,0.8,4.8,3.5l-4.2,19.9
			l-4.6,21.9c-0.5,2.3-3.2,3.4-5.1,1.9L392.4,281.1z"/>
	</g>
	<path class="st0" d="M383.8,220L383.8,220c-4.5,0-8.3-3.7-8.3-8.3v0c0-4.5,3.7-8.3,8.3-8.3l0,0c4.5,0,8.3,3.7,8.3,8.3v0
		C392,216.3,388.3,220,383.8,220z"/>
</g>
</svg>
