<?xml version="1.0" encoding="utf-8"?>
<!-- Generator: Adobe Illustrator 24.0.0, SVG Export Plug-In . SVG Version: 6.00 Build 0)  -->
<svg version="1.1" id="Layer_1" xmlns="http://www.w3.org/2000/svg" xmlns:xlink="http://www.w3.org/1999/xlink" x="0px" y="0px"
	 viewBox="0 0 792 612" style="enable-background:new 0 0 792 612;" xml:space="preserve">
<style type="text/css">
	.st0{fill:#9A7E5E;}
	.st1{fill:none;stroke:#D4CEC3;stroke-width:9.3891;stroke-miterlimit:10;}
	.st2{fill:none;stroke:#D4CEC3;stroke-width:9.5034;stroke-miterlimit:10;}
	.st3{fill:#FFF200;}
</style>
<g id="Layer_2_1_">
	<polygon class="st0" points="265.1,303.5 328.9,241.6 368.8,211.7 380.7,168.8 421.7,213.3 482.4,274.5 502.4,315.4 503.4,326.7 
		421.6,373.3 401.7,387.2 393.7,327.4 394.7,309.4 362.8,335.4 305.9,335.4 279,345.3 256.1,315.4 	"/>
</g>
<g>
	<path class="st1" d="M385.6,326.3c-15.9,13.1-34.1,14.4-52.8,12.8c-12.3-1.1-23.8-0.2-35.3,5.5c-16.8,8.3-30.3,4.3-39.1-9.8
		c-9.2-14.7-6.3-32.8,6.8-43.8c3-2.5,6-4.9,9.2-7.2c17.2-12.2,31.9-27.2,45.5-43.2c6.6-7.7,13.7-15.2,21.7-21.4
		c7.4-5.8,16.3-9.8,24.2-14.5c1-7.3,1.2-15.6,3.5-23.3c1.9-6.4,5.8-12.4,9.5-18.1c2.6-4,4.9-3.3,7.2,1.1
		c6.1,11.7,12.4,23.3,18.7,34.8c0.7,1.3,2,2.8,3.3,3.4c27.2,11.3,48.2,30.4,66.4,53c15.3,19,27.2,40.1,37.2,62.4
		c0.9,2.1,2.1,4.5-0.9,5.7s-3.8-1.4-4.7-3.4c-13.3-29.6-30.1-56.9-53.4-79.9c-14-13.8-29.5-25.4-48-32.6c-1.6-0.6-3.2-2.3-4-3.8
		c-6-10.6-11.7-21.2-17.6-31.9c-0.3-0.6-0.7-1.2-1.6-2.6c-6.7,11.4-10.6,22.6-7.7,35.4c1.2,5.2,1.3,5.4-3.9,6.6
		c-11.3,2.5-20.7,8.6-29.1,16.2c-5.4,4.9-10.6,10.2-15.3,15.8c-14.1,17.1-29.5,32.7-47.7,45.5c-2.8,2-5.5,4.2-8.2,6.3
		c-13.2,10.8-13.9,29.6-1.6,41.5c5.6,5.4,12,7.1,19.4,5.1c2.7-0.7,5.6-1.5,8-2.9c11.7-7,24.5-7,37.5-6.1c7.1,0.5,14.4,0.5,21.5-0.1
		c14.5-1.2,25.8-10.1,34.8-20.3c0,0,1.4,1.2,1.3,1.1c-4.4,1.4,2.2-9.2,5-13.9c1.2-2,2.2-3.8,4.5-2.8c1.1,0.5,1.8,3.6,1.2,4.8
		c-2.8,5.9-6.1,11.6-9.1,17.5c-0.7,1.3-1.3,3.2-0.9,4.3c7.9,20,8.1,40.7,6.1,61.6c-0.3,3.6-0.6,7.2-1.5,10.7
		c-0.4,1.6-6.1,1.3-5.9-0.9c0.8-10.1,2.1-20.3,2.3-30.4C392.4,351.5,390.7,338.9,385.6,326.3z"/>
	<path class="st2" d="M390.9,397.3l121-74.5L390.9,397.3z"/>
</g>
<circle class="st3" cx="360.3" cy="245.6" r="5.7"/>
</svg>
