<?xml version="1.0" encoding="utf-8"?>
<!-- Generator: Adobe Illustrator 24.0.0, SVG Export Plug-In . SVG Version: 6.00 Build 0)  -->
<svg version="1.1" id="Layer_1" xmlns="http://www.w3.org/2000/svg" xmlns:xlink="http://www.w3.org/1999/xlink" x="0px" y="0px"
	 viewBox="0 0 792 612" style="enable-background:new 0 0 792 612;" xml:space="preserve">
<style type="text/css">
	.st0{fill:none;stroke:#D4CEC3;stroke-width:12.6783;stroke-miterlimit:10;}
	.st1{fill:none;stroke:#D4CEC3;stroke-width:12.3945;stroke-miterlimit:10;}
</style>
<path class="st0" d="M380.1,427.1l-138,0.6c-5.9,0-9.8-6.3-7.1-11.6l57.6-112.1l56.5-109.9c2.9-5.7,11.2-5.7,14.1,0l61.5,119.4"/>
<path class="st1" d="M443.5,427.5h-61.8c-6.5,0-10.7-6.9-7.7-12.7l31.5-61.3l30.3-59c3.2-6.3,12.3-6.3,15.5,0l30.3,59l31.5,61.3
	c3,5.8-1.2,12.7-7.7,12.7H443.5z"/>
<circle class="st0" cx="270.3" cy="175" r="32"/>
<polyline class="st0" points="326.3,242.2 353.9,285.5 388.6,239.1 "/>
<polyline class="st0" points="415.7,338.2 443.2,381.4 475.7,335.2 "/>
</svg>
