<?xml version="1.0" encoding="utf-8"?>
<!-- Generator: Adobe Illustrator 24.0.0, SVG Export Plug-In . SVG Version: 6.00 Build 0)  -->
<svg version="1.1" id="Layer_1" xmlns="http://www.w3.org/2000/svg" xmlns:xlink="http://www.w3.org/1999/xlink" x="0px" y="0px"
	 viewBox="0 0 792 612" style="enable-background:new 0 0 792 612;" xml:space="preserve">
<style type="text/css">
	.st0{fill:none;stroke:#D4CEC3;stroke-width:15.9533;stroke-miterlimit:10;}
</style>
<path class="st0" d="M288.2,199.5c47.7,0,95.4,0,143.1,0c0.4,2,0.6,4,1.2,5.9c21.1,79.2,42.2,158.4,63.4,237.5
	c5.1,19.2,10.7,38.2,16.1,57.3c-0.5,1-0.8,2.6-1.6,2.9c-1.3,0.5-3,0.1-4.5,0.1c-97.4,0-194.8,0-292.2-0.2c-1.9,0-6.5,3.1-6.1-2.9
	c0.9-2.3,2-4.5,2.7-6.9c19-71.1,38-142.3,56.9-213.4C274.2,253.1,281.1,226.3,288.2,199.5z M350,208.9c0,13.4,0,26.4,0,39.6
	c6.8,0,12.9,0,19.4,0c0-13.5,0-26.5,0-39.6C362.6,208.9,356.4,208.9,350,208.9z M369.3,329.7c0-13.5,0-26.7,0-39.8
	c-6.8,0-13,0-19.4,0c0,13.5,0,26.5,0,39.8C356.6,329.7,362.8,329.7,369.3,329.7z M350.1,452c0,13.5,0,26.7,0,39.6c6.9,0,13,0,19.3,0
	c0-13.6,0-26.6,0-39.6C362.7,452,356.5,452,350.1,452z M349.9,371.2c0,13.6,0,26.3,0,39.3c6.7,0,13,0,19.6,0c0-13.2,0-26,0-39.3
	C362.9,371.2,356.7,371.2,349.9,371.2z"/>
<path class="st0" d="M369.3,329.7c-6.5,0-12.7,0-19.4,0c0-13.3,0-26.2,0-39.8c6.4,0,12.6,0,19.4,0
	C369.3,303,369.3,316.2,369.3,329.7z"/>
<path class="st0" d="M350.1,452c6.4,0,12.6,0,19.3,0c0,13.1,0,26,0,39.6c-6.3,0-12.4,0-19.3,0C350.1,478.7,350.1,465.5,350.1,452z"
	/>
<path class="st0" d="M349.9,371.2c6.8,0,13,0,19.6,0c0,13.3,0,26,0,39.3c-6.6,0-12.9,0-19.6,0C349.9,397.5,349.9,384.7,349.9,371.2z
	"/>
<g>
	<path class="st0" d="M526.3,246.9h-46.5c-5.9,0-9.6-6.7-6.7-12.1l23.2-42.2l23.2-42.2c3-5.4,10.4-5.4,13.3,0l23.2,42.2l23.2,42.2
		c3,5.4-0.7,12.1-6.7,12.1H526.3z"/>
	<path class="st0" d="M533.1,298.5h-13.5c-3.1,0-5.6-2.5-5.6-5.6v-37.2c0-3.1,2.5-5.6,5.6-5.6h13.5c3.1,0,5.6,2.5,5.6,5.6v37.2
		C538.7,296,536.2,298.5,533.1,298.5z"/>
</g>
<g>
	<path class="st0" d="M197.4,251.2h-46.5c-5.9,0-9.6-6.7-6.7-12.1l23.2-42.2l23.2-42.2c3-5.4,10.4-5.4,13.3,0l23.2,42.2l23.2,42.2
		c3,5.4-0.7,12.1-6.7,12.1H197.4z"/>
	<path class="st0" d="M204.1,302.9h-13.5c-3.1,0-5.6-2.5-5.6-5.6V260c0-3.1,2.5-5.6,5.6-5.6h13.5c3.1,0,5.6,2.5,5.6,5.6v37.2
		C209.7,300.4,207.2,302.9,204.1,302.9z"/>
</g>
</svg>
