<svg xmlns="http://www.w3.org/2000/svg" viewBox="0 0 2798.05 1285.19"><defs><style>.cls-1{fill:#d7ecf9;}</style></defs><title>sky (4)</title><g id="Layer_2" data-name="Layer 2"><g id="sky"><path class="cls-1" d="M.18,784.53q0-286-.18-571.94c0-17.23,1.58-24,8.58-20.76,1.35.62,2.79.09,4.18.09q1385.43,0,2770.86-.64c10.48,0,12.89,5.79,12.85,31.65q-.63,459.95-.27,919.92c-8.45,9.36-17.52-5.36-26.37,6.68-33.93,46.16-68.25,90.59-102.43,135.66-16.87-9.34-32.16-35.12-50.75-27.22-8.28,3.53-16-7.21-23.94-11.71-13.89-7.88-24.45-38.19-39.78-33.54-7.48-13.21-15.16-25-25-22.31-4.47-12.86-11-3.79-16.13-9-4.49-36.64-15.34-54.29-31.65-51.46-10.06,4.2-18.91-4.76-27.59-15.48-3.29-14.86-6.2-35.07-14.94-25.89-7.25,7.61-14.56,3.1-21.59,7.91-25.34-6.44-48.71,11.32-71.52,35.65-5.48,5.85-10.1.4-14.44-6.23-16.72-25.55-34-47.93-52.86-62.54-.12-10.81-3.41-13.1-6.75-15.25-2.17-3.61-4.13-4.23-5.6,2.31l-5.44,4.17-2.76-1.57c-8.24-15.7-19.27,8.56-24.79-3.1-15.08-31.86-31.62-50.8-50.93-57.55-.8-.28-1.41-3.35-2.24-3.92-11.5-7.89-20.91-36-33.4-29-9.72,5.39-18.89,4.61-28.38,3.41-2.45-20.72-9.1-1.1-13-8.21-1.51-34.43-15.11-16.74-21.36-30.18s-11.47-10.68-16.59,3.19c-8.48,12.8-17.56,10.54-26.62,5.9-14.34-7.34-28.64-15.24-43-22.91-17.28-21.16-36.61-30.5-53.1-56.16-10.19-14.26-21-25.32-26.8-54.45-3.12-15.58-9.86-8.87-15-.88l-5.79,2-2.36-3.36c-10.08-15.31-7.92-56.21-21.86-63.45l-.25.08-42.52-66.74c-16.09-30.67-35.37-44.21-54.48-54.43-60.91-32.54-122.12-61.67-183.21-92.1-36.85-23.31-74.21-39.22-112.15-46.47-19.41-21.8-40.09-20.17-60.75-21.39-13.24-.78-24.29,8.56-33.87,30.31-21.44,17.68-44,26.53-64.61,50.8-13.55-18.09-25.77-22.58-38.42,8.52-6.22,15.28-17.18,12.78-25.15,3.78-14.6-16.48-28.86-20.24-44.2-8.44-17.66,13.59-35.49,26.09-54.24,26.85-16.22-5-32.48-2.27-48.7-.71-11.17,1.07-24.64,5.81-31,24.53-9.83,29.07-22.42,37.75-35,50.45l-14,5.45c-2.15-2-4.37-6.16-6.43-5.7-23.47,5.22-44.93,28.1-66.77,47.52a16.69,16.69,0,0,0-4.33,8.12c-6.12,25.8-16.07,40-26.15,54a286,286,0,0,1-31.05,16.37c-19.84,9.15-40.23,14.42-58.5,38.48-46.88,32.54-94.27,16.77-141,2.39-37.08-11.4-73.42-37.15-110.09-56.53C536.19,701.25,484.45,693,433.51,675.07l-5.43.86c-20.37-3.42-40.54-14.31-61.11-9.38-2.63-5.84-5.37-6-8.22-1l-3.68-.9-39.15-37.77c-5.38-6.44-11.06-11.7-16.09-19.52-24.21-37.74-47.38-31.43-70.42,6.95-14.89,24.81-29.65,50.91-47.8,60.34-12.24-18.6-26.31-15.12-39.68-19.15-8.94-2.69-11.07,15.65-12.81,32.67L117.41,682c-8.54-21.37-29.85-21.93-43.22.55C50.73,722,24.16,747.53.18,784.53Z"/><rect class="cls-1" x="1.92" width="2796.13" height="206.16"/></g></g></svg>